<svg version="1.2" xmlns="http://www.w3.org/2000/svg" viewBox="0 0 1224 1584" width="1224" height="1584">
	<title>VECTOR LOGO APS</title>
	<style>
		.s0 { fill: #394144 } 
		.s1 { fill: #c5292c } 
	</style>
	<g id="Layer 1">
		<g id="&lt;Group&gt;">
			<g id="&lt;Group&gt;">
				<g id="&lt;Group&gt;">
					<path id="&lt;Path&gt;" class="s0" d="m691.6 345.2c-5.7 19.6-11.2 38.5-16.8 57.8-1.4-0.3-2.6-0.4-3.7-0.7q-26.3-7.7-52.5-15.4c-1.5-0.5-2.9-0.9-4.3-1.5-5.1-2.2-7.7-7.1-6.7-12.6 0.2-1.4 0.5-2.9 0.8-4.8-1.8-0.6-3.4-1.2-5-1.7-32.8-9.9-65.5-19.7-98.2-29.5-14.1-4.2-28.4-6.8-43.1-6.8-19.2-0.1-37.7 3.6-55.1 11.6-16.9 7.8-31.8 18.6-43.9 32.8-12.2 14.3-20.6 30.7-25.7 48.8-1.9 6.8-4.4 13.4-6.2 20.2-1.2 4.5-1.8 9.1-2.4 13.7-0.8 5.6-1.5 11.3-2.2 17-0.2 2.2-0.4 4.5-0.7 7.1 2.1 0.1 3.6 0.3 5 0.3 8.1 0 16.1 0 24.1 0.1 2.4 0.1 4.9 0.5 7.2 1.3 3.1 1.1 3.5 2.3 2.6 5.7q-4.3 15.8-8.6 31.6-16.9 61.9-33.7 123.9c-5.8 21.1-11.4 42.4-17.5 63.4-4.1 14.4-9.1 28.6-13.7 42.8-3.2 9.8-6.2 19.5-9.3 29.3q-0.3 0.7-0.6 1.5c-3.5 8.6-3 7.8-11.4 7.5-2.6-0.1-5.2 0.1-7.8 0.2-1.9 0.1-2.4 1.5-2.8 3-1.5 5.5-3 11-4.5 16.6q-10.9 40.4-21.7 80.9c-2.1 7.7-4.3 15.5-6.3 23.3-0.5 1.9-1.1 3.2-3.4 3.2-9.8-0.1-19.7-0.1-29.5-0.1-0.3 0-0.7-0.3-1.7-0.6 9.6-41.9 19.1-83.8 28.8-126.3-2.1 0-3.6 0-5.2-0.1-2.3-0.1-4.7-0.1-6.9-0.5-4-0.8-6.2-3.4-6.1-7.5 0.1-2.9 0.6-5.7 1.2-8.5q13.2-59.7 26.5-119.3c6.2-27.9 12.4-55.9 18.7-83.8q8.9-39.9 17.8-79.7c1.3-6.1 3.3-7.7 9.5-7.9 3.7-0.1 7.4 0 11 0 4.7-0.1 5.2-0.4 6-4.8 2.1-10.8 4.3-21.4 6-32.2 1.4-9.6 3.1-19.1 5.7-28.4 3-11.2 7.3-21.9 12.5-32.3 5.7-11.4 12.8-21.8 21.1-31.4 11.1-12.9 24.1-23.7 38.7-32.3 9.1-5.4 18.6-9.8 28.5-13.3 12.4-4.3 25.2-7 38.3-8.2 25.2-2.4 49.7 1.6 73.8 8.8 31.7 9.5 63.3 19.2 95 28.8 0.9 0.3 1.8 0.6 2.7 0.8 3 0.7 3.3 0.6 4.9-2.2 3.1-5.2 7.1-7.3 13-5.9 7.5 1.8 15 4.1 22.4 6.2q15.8 4.4 31.5 8.8c1.2 0.4 2.3 0.8 3.9 1.3z"/>
					<path id="&lt;Compound Path&gt;" fill-rule="evenodd" class="s0" d="m557.9 791.2c-22.6 0-44.5 0-67.1 0-5.3-18.8-10.7-37.7-16.2-56.8-28.4 0-56.5 0-85.2 0-1 3.5-2.2 7.1-3.2 10.7q-6.1 21-12.2 42c-1.2 4.1-1.2 4.1-5.6 4.1q-29.1 0-58.1 0c-1.4 0-2.9-0.1-4.9-0.2 0.6-2.5 1-4.5 1.5-6.3q11.6-40.1 23.2-80.1c10.7-36.9 21.5-73.7 32.2-110.6 7.5-25.7 14.9-51.5 22.3-77.3q4.1-14.1 8.2-28.2c1.3-4.4 1.3-4.5 5.8-4.5q32.6 0 65.1 0c4.5 0 4.5 0.1 5.8 4.5q8.2 28 16.4 56.1 10.4 35.6 20.9 71.3 12.6 42.9 25.2 85.8 10.3 35.3 20.7 70.6c1.4 4.8 2.8 9.6 4.2 14.5 0.4 1.2 0.6 2.6 1 4.4zm-126.2-218.7q-0.5 0-1.1 0c-9.9 34.9-19.9 69.7-29.7 105 20.4 0 40.2 0 60.6 0-10-35.3-19.9-70.2-29.8-105z"/>
					<path id="&lt;Compound Path&gt;" fill-rule="evenodd" class="s0" d="m631.1 689.3c0 34.2 0 67.8 0 101.9-21.6-0.1-42.7 0.4-63.6-0.4-1-4.5 0-302.4 1-306.8 0.9-0.1 1.8-0.2 2.7-0.2 35.9 0 71.7-0.3 107.6 0.2 20.1 0.3 38.9 6.1 55.3 18.3 16.1 12 27 27.8 32.9 47 6.1 19.7 7.6 39.9 3.8 60.1-6.3 33.1-24.4 57.5-55.5 71.5-11 5-22.7 7.8-34.7 8.1-14.6 0.5-29.2 0.2-43.8 0.3-1.6 0-3.2 0-5.7 0zm1.6-148.9c-1.1 5.8-0.8 89.2 0.2 92.1 0.7 0.1 1.3 0.2 2 0.2 12.1 0 24.3 0 36.4-0.1 3 0 6-0.4 8.8-1.2 15.4-4.2 24.6-14.4 28.4-29.6 1.9-7.5 1.2-15.2 1-22.8-0.5-20.7-17-38.9-39.5-38.6-11.1 0.1-22.1 0-33.1 0-1.4 0-2.7 0-4.2 0z"/>
					<path id="&lt;Path&gt;" class="s0" d="m973.7 535.5c0 9-0.2 18 0.1 27 0.1 3.3-1.8 4.5-4.7 3.5-2.3-0.7-4.5-1.8-6.5-3.1-15.7-9.7-32.2-17.9-50.1-22.5-12.6-3.2-25.4-3.8-37.9 0.7-8.7 3.2-15.4 8.8-18.5 17.8-3.2 9.4-0.8 17.8 5.4 25.1 4.8 5.6 11 9.3 17.6 12.4 11 5.1 22.1 9.8 33.2 14.6 11.1 4.9 22.5 9.1 32.9 15.4 12.8 7.7 23.9 17 31.1 30.4 4.2 7.9 7.1 16.2 8.7 25 3 15.8 2.6 31.7-1.5 47.3-5.6 21.3-17.5 38.2-36.2 49.9-10.2 6.4-21.5 9.9-33.1 12.2-33.3 6.8-65.6 3.6-96.8-10-7.4-3.2-14.4-7.5-21.6-11.3-2.9-1.4-4.1-3.8-4-7 0-5.3-0.1-10.6-0.1-15.9q0-18.4 0.1-36.8c0-5.8 2.9-7.5 8.1-4.4 4.5 2.8 8.9 5.8 13.4 8.5 19.4 11.7 40.2 19.6 62.7 21.9 13.9 1.4 27-1.7 37.7-11.1 12.4-10.8 11.6-28.8 2-39.2-5.5-6-12.2-10-19.5-13.1-17.2-7.4-34.3-14.8-50.8-23.5-13.6-7.1-26-15.9-36.3-27.4-9-10.1-14.1-22.2-16-35.6-2.4-16.2-1.6-32.3 3.3-48q4.7-15.2 15.2-27.2c11-12.7 24.5-21.5 40.1-27.1 8.2-2.9 16.7-4.2 25.2-5.1 8.1-0.7 16.3-0.9 24.5-0.3 13.7 1 26.9 3.8 39.7 8.8 10.1 4 19.8 8.9 29.3 14.2 2.8 1.6 4.1 3.7 4 6.9"/>
					<path id="&lt;Path&gt;" class="s0" d="m688.3 403.3c4.7-16.2 9.1-32 14-47.9 7.9 2.7 15.3 5.1 22.5 7.7 13.6 4.9 27.2 9.7 40.7 14.9 17.3 6.7 34.6 13.7 51.9 20.7 5 2 10 4.2 14.9 6.6 3.2 1.7 5 4.5 4.8 8.3-0.1 3.9-1.9 6.6-5.6 7.7-2.3 0.6-4.9 1.1-7.3 0.9-10.7-0.6-21.5-1-32.1-2.4-25.4-3.3-50.7-7.1-76.1-10.9-8.2-1.3-16.3-3-24.5-4.6-0.9-0.2-1.7-0.5-3.2-1z"/>
				</g>
				<g id="&lt;Group&gt;">
					<path id="&lt;Path&gt;" class="s1" d="m1120.1 405c-28.1 3-56.3 6.2-84.4 8.9-22.8 2.3-45.6 4-68.5 3.8-15-0.2-29.2-3.5-42.6-10-0.2-0.1-0.3-0.4-0.7-1 1.3-0.7 2.6-1.4 3.9-1.9 11.9-4.3 24.2-6.4 36.8-7.4 22.5-1.8 45.1-1.2 67.7 0.4 23.1 1.6 46.2 3.1 69.3 4.6 5.4 0.4 10.9 1 16.3 1.5 0.8 0 1.5 0.3 2.3 0.4q0 0.3-0.1 0.7z"/>
					<path id="&lt;Path&gt;" class="s1" d="m902.5 364.2c0.3-1.9 0.4-3.3 0.8-4.7 3.7-14.8 10.7-28.1 18.8-41 13-20.7 28-40 43-59.4 13.3-17.2 26.5-34.5 39.7-51.7 1.9-2.5 3.9-4.8 6.3-6.9-0.5 1.3-1 2.7-1.7 3.9-8.5 16.5-16.9 33-25.7 49.3-7.5 14-15.5 27.7-23.1 41.7-7.4 13.5-15.6 26.5-24.5 39-8.5 12-19.2 21.4-31.6 29-0.5 0.3-1 0.4-2 0.8z"/>
					<path id="&lt;Path&gt;" class="s1" d="m858.5 359.1c-1.5-4.4-2.9-8.1-3.9-11.8-5.2-18.9-7.3-38.2-6.4-57.8 0.8-18.2 2.2-36.4 3.5-54.6 0.8-11.4 1.7-22.8 2.7-34.2 1.1-12.6 2.3-25.2 3.4-37.8 0.1-0.4 0.3-0.8 0.6-1.7 0.9 1.7 0.6 3.1 0.8 4.4 0.2 1.5 0.5 2.9 0.6 4.4 1.3 13.9 2.7 27.7 3.9 41.5 1 12.1 1.9 24.2 2.8 36.2 0.8 10.8 1.6 21.5 2.2 32.2 0.9 17.1 1 34.1-2.3 50.9-1.6 8.5-4.2 16.9-6.4 25.3-0.2 0.8-0.7 1.4-1.5 3z"/>
					<path id="&lt;Path&gt;" class="s1" d="m706.7 213.8c5 4.8 10 9.7 14.8 14.6 7.5 7.6 14.9 15.2 22.2 23 17.1 18.3 34.3 36.5 51.1 55.1 9.2 10.2 18.1 20.7 25.4 32.5 4.3 7 8 14.2 9.6 22.4 0.3 1.7 0.5 3.4 0.8 6.1-2.1-1.1-3.5-1.8-4.8-2.6-11.6-6.9-21.2-16-29.8-26.4-18.4-22.3-35.2-45.8-51.8-69.4-12.3-17.3-24.2-35-36.2-52.5-0.6-0.8-1.1-1.8-1.7-2.7q0.2 0 0.4-0.1z"/>
					<path id="&lt;Path&gt;" class="s1" d="m1029.4 318.8c-5.5 4-10.3 7.7-15.4 11.1-13.4 8.8-26.8 17.7-40.5 26.2-5.2 3.2-10.9 5.6-16.3 8.4q-13.4 6.6-26.8 13.2c-0.3 0.2-0.7 0.2-1.2 0.3 6.8-13.8 75.1-54.3 100.2-59.2z"/>
					<path id="&lt;Path&gt;" class="s1" d="m922.7 435.2c27.6 5.2 52.5 15.4 75.6 30.7-12.7 1.5-63.8-19.2-75.6-30.7z"/>
					<path id="&lt;Path&gt;" class="s1" d="m882.4 345.1c3.9-27.5 15.1-52 25.4-77.5 0.5 22.6-10.9 57.3-25.4 77.5z"/>
				</g>
			</g>
			<g id="&lt;Group&gt;">
				<g id="&lt;Group&gt;">
					<path id="&lt;Compound Path&gt;" fill-rule="evenodd" class="s0" d="m474.2 1284.6c-11.2 0.2-20-2-27.7-7.1-9.3-6.1-15.1-14.8-17.7-25.6-2.6-11.2-1.9-22 3.4-32.3 4.3-8.4 10.8-14.7 19.5-18.5 12.7-5.8 25.9-6.6 39-1.7 10.9 4.1 18.7 11.6 23.3 22.3 5.1 12.1 5.5 24.3 0.6 36.6-3.5 8.7-9.7 15.2-17.7 19.9-7.6 4.5-15.9 6.2-22.7 6.4zm-1.7-72c-4-0.2-8 0.8-11.6 2.9-17.3 9.8-19.4 34.4-3.9 47.1 13.8 11.2 32.6 5.2 39.4-10.3 3.2-7.3 3.3-14.8 0.5-22.3-3.8-10.4-13.6-17.6-24.4-17.4z"/>
					<path id="&lt;Compound Path&gt;" fill-rule="evenodd" class="s0" d="m103.8 1199.1c1.5-0.1 2.6-0.3 3.7-0.3 10.3-0.1 20.5-0.1 30.8 0 10.9 0 20.7 3.3 28.9 10.4 9.2 7.8 13.9 17.9 14.3 30 0.2 7.2-0.9 14.1-4.3 20.5-6 11.3-15.4 18.5-27.7 21.5-4 1-8.2 1.4-12.3 1.5-9.8 0.2-19.6 0-29.4 0q-0.7 0.1-1.5 0c-2.1-0.1-2.4-0.3-2.5-2.5 0-0.5 0-1.1 0-1.7q0-37.9 0-75.9c0-1 0-2 0-3.5zm19.6 16.5c-0.6 3.2-0.3 48.8 0.4 51.1 6-0.2 12.2 0.6 18.2-0.6 7.8-1.4 13.7-5.7 17.4-12.7 2.3-4.2 3-8.9 2.9-13.7-0.3-12.2-8.6-21.9-20.4-24-5.9-1.1-11.8-0.4-17.8-0.4-0.2 0-0.5 0.2-0.7 0.3z"/>
					<path id="&lt;Path&gt;" class="s0" d="m916.9 1233.9c0.1 1.3 0.2 2.3 0.2 3.3 0 10.2 0 20.4 0.1 30.6 0 2.9-1.1 4.9-3.6 6.5-15.9 10.6-33 12.7-51 6.5-13.4-4.7-21.5-14.5-24.9-28.2-2.1-8.4-2.2-16.9 0.3-25.2 3.4-11.5 10.2-20.3 21-25.7 14.3-7.1 28.8-6.7 43.4-1.2 3.6 1.3 7 3.5 10.5 5.4 1.7 1 1.6 1.5 0.4 3.1q-3.9 5.2-7.9 10.4c-1.8 2.4-2 2.4-4.4 0.6-7.2-5.8-15.3-8.5-24.5-6.6-10.9 2.3-17.8 9-20.2 19.8-1.9 8.5-0.5 16.7 4.5 24.1 5.9 8.6 16.7 12.6 27.2 9.9 3.1-0.8 6.1-2.3 9.2-3.5 1.1-0.4 1.9-1.3 1.9-2.6 0-3.6 0-7.1-0.1-10.7 0-0.4-0.2-0.7-0.6-1.4-5.7 0-11.5 0-17.2 0-0.3-0.7-0.4-1-0.5-1.4-0.2-3.8-0.5-7.7-0.7-11.6-0.1-2 0.1-2.2 2.2-2.3 1.6 0 3.2 0 4.8 0q13.2 0 26.4 0c1.1 0 2.2 0.1 3.5 0.2z"/>
					<path id="&lt;Compound Path&gt;" fill-rule="evenodd" class="s0" d="m642.7 1198.3c1.1 0 2-0.1 2.9-0.1q15.2 0 30.3 0c10.2 0 19.6 2.8 27.7 9.1 8.5 6.6 13.9 15.2 15.5 26 1.3 9.1 0.5 17.8-3.6 26-3.8 7.5-9.4 13.4-16.7 17.5-7.4 4.1-15.2 5.9-23.6 5.8-9.8-0.1-19.5 0-29.2 0-1 0-2 0-3 0-0.7-2.2-0.9-79.7-0.3-84.3zm18.2 16.2c-0.1 0.9-0.2 1.6-0.2 2.3q0 23.2 0 46.4c0 1.1 0.3 2.2 0.5 3.7 6.2-0.2 12.1-0.2 18-0.6 4.1-0.4 7.8-2.2 11.1-4.6 7.3-5.6 10.6-13 10.4-22.1-0.1-12.9-9.5-23.7-22.3-25.1-5.1-0.5-10.3-0.3-15.5-0.4-0.6 0-1.3 0.3-2 0.4z"/>
					<path id="&lt;Path&gt;" class="s0" d="m961.8 1213.8c0 6.4 0 12.2 0 18.3 1.2 0.1 2.3 0.2 3.4 0.2q16.3 0 32.5 0c1.1 0 2.2 0 3.2 0 0.8 2.9 0.7 13.5 0 16.2-6.4 0-12.8 0-19.3 0-6.5 0-13 0-19.8 0-0.4 6.1-0.1 12-0.2 18.3 1.3 0.1 2.4 0.2 3.4 0.2q19.3 0 38.5 0c0.8 0 1.5 0 2.3 0 1.9 0.1 2.2 0.3 2.2 2.1q0.1 5.7 0 11.3c0 2-0.3 2.2-2.4 2.3q-0.7 0.1-1.4 0-28.6 0.1-57.2 0c-1.1 0-2.3-0.1-3.9-0.2 0-27.5 0-54.8 0-82.1 0-0.7 0.3-1.4 0.4-2.2 21.2 0 42.2 0 63.5 0 0.2 5.2 0.2 10.3 0 15.6-15.2 0-30.1 0-45.2 0z"/>
					<path id="&lt;Compound Path&gt;" fill-rule="evenodd" class="s0" d="m823.4 1283.6c-1.2 0.1-1.8 0.3-2.4 0.3-4.8 0-9.5-0.1-14.2 0-1.7 0-2.7-0.5-3.4-2.2-1.9-4.7-4-9.4-5.9-14.1-1.4-3.2-1.4-3.3-4.7-3.3q-14.6 0.1-29.2 0.2c-2.9 0-3.1 0.1-4.2 2.8-1.9 4.7-3.9 9.3-5.7 14.1-0.8 2.1-2 2.9-4.2 2.8-4.7-0.1-9.4 0-14.2 0-0.4 0-0.9-0.1-1.8-0.2 0.4-1.3 0.7-2.4 1.1-3.5q4.7-11.4 9.4-22.7c3.9-9.4 7.8-18.6 11.6-28 4.3-10.2 8.6-20.5 12.7-30.8 0.5-1.2 1.2-1.8 2.5-1.8q3.5-0.1 7.1-0.1c2.3-0.1 4.7 0 7.1-0.1 1.4 0 2.3 0.6 2.8 1.9q4.7 11.2 9.4 22.4 5.3 12.3 10.5 24.7 4.2 9.9 8.4 19.8 3 6.8 5.8 13.8c0.5 1.1 0.9 2.4 1.5 4zm-45.6-63.1c-3.5 9-6.9 17.9-10.3 26.8 3.1 0.8 19.6 0.7 21.6 0-0.3-2.8-9.5-25-11.3-26.8z"/>
					<path id="&lt;Path&gt;" class="s0" d="m595.9 1198.2c0.9-0.1 1.5-0.3 2.2-0.3q6.8 0 13.5 0c2.3 0 2.6 0.3 2.6 2.7 0 16.1 0.1 32.1 0 48.2-0.1 5.6-0.9 11.2-3.3 16.5-3.8 8.6-10.3 14.1-19.2 16.7-10.1 2.9-20.3 2.9-30.3-0.4-10.2-3.3-16.5-10.5-19.6-20.6-1.3-4.4-1.7-8.9-1.7-13.5-0.1-15.5-0.1-31.1 0-46.7 0-2.6 0.1-2.7 2.7-2.8q6.5 0 13 0c2.7 0.1 2.8 0.2 2.8 3q0 21.5 0 43.1c0 3.8 0.1 7.7 1.3 11.4 1.8 6 5.8 9.8 11.7 11.6 8 2.3 16.7-0.7 21-7.4 1.9-3 2.6-6.4 2.9-9.9 0.1-2 0.2-4 0.2-6q0-21.1 0-42.2c0-1.1 0.1-2.2 0.2-3.4z"/>
					<path id="&lt;Path&gt;" class="s0" d="m201.8 1199.8c0.9-0.1 1.7-0.3 2.4-0.3q6.5 0 13 0c2.7 0 2.9 0.2 2.9 3-0.1 10.2-0.2 20.4-0.2 30.5 0 5.6-0.1 11.2 0.3 16.8 0.3 6.3 2.8 11.6 8.2 15.3 6.1 4.2 15.9 3.9 21.4-1 3.4-2.9 4.8-6.9 5.3-11.2 0.3-2.1 0.4-4.2 0.4-6.2q0-22.1 0-44.2c0-0.8-0.1-1.6 0-2.3 0.2-1.7 0.5-2.1 2.3-2.2q6.9 0 13.9 0.1c1.8 0 2.1 0.3 2.2 2.1q0 0.5 0 0.9c0 17.2 0.1 34.4-0.1 51.6-0.1 8.8-3 16.6-9.5 22.8-4.9 4.7-10.8 7.3-17.4 8-6 0.7-11.9 0.8-17.8 0-14.1-1.7-24.6-11.6-26.6-26-0.7-4.9-0.9-9.9-1-14.9-0.1-12.5 0-24.9 0-37.4 0-1.8 0.2-3.5 0.3-5.4z"/>
					<path id="&lt;Path&gt;" class="s0" d="m405.3 1208c-1.5 2.4-2.7 4.5-4 6.6q-1.6 2.6-3.3 5.2c-1.4 2.2-1.8 2.2-4 0.9-3-1.7-6-3.6-9.2-4.9-2.9-1.3-6-2-9.2-2.7-2.8-0.7-5.6-0.2-8.3 0.8-4.5 1.8-6.1 7.8-3 11.6 1.7 2 3.9 3 6.3 3.6 5.2 1.4 10.4 2.7 15.6 4.2 5.2 1.5 10.2 3.6 14.6 7 4.5 3.5 6.9 8.2 7.8 13.7 0.7 4.6 0.4 9.3-1.3 13.6-2 5.3-5.4 9.4-10.3 12.4-5.8 3.4-12.2 4.4-18.8 4.5-9.5 0.2-18.6-1.6-27-6.1-3.1-1.7-6-3.9-9-5.8-1-0.7-1.6-1.4-0.7-2.6 3.1-4.2 6.3-8.4 9.6-12.7 1.1 0.7 1.9 1.1 2.6 1.7 3.8 2.6 7.7 5.1 12 6.8 5.3 2 10.8 2.7 16.4 1.8 3.4-0.6 6-2.2 7.3-5.6 1.3-3.2 0.5-6.3-2.4-8.2-1.8-1.2-3.8-2.2-5.8-2.8-6.2-1.8-12.6-3.4-18.8-5.2-6.6-1.9-12-5.4-15.5-11.5-5.6-9.8-3.9-28 11.9-34.8 6.6-2.8 13.5-3.4 20.5-2.4 6.5 0.9 12.9 2.7 18.7 6.1 2.3 1.4 4.5 3 7.3 4.8z"/>
				</g>
				<g id="&lt;Group&gt;">
					<path id="&lt;Path&gt;" class="s1" d="m352 1421c-0.6 0.1-1 0.3-1.3 0.3-4.6 0-9.1 0-13.6 0-2.2 0-2.5-0.4-2.5-2.5q-0.1-0.8 0-1.7 0-39.1 0-78.2 0-0.5 0-1.1c0-2.7 0.1-2.8 2.9-2.8 4.8-0.1 9.6 0 14.4-0.1 2.4 0 3.9 0.9 5.1 2.9 4.9 7.8 9.9 15.6 14.8 23.4 1.4 2.2 2.7 4.4 4.1 6.5 0.4 0.7 1.1 1.2 1.9 2.2 1.4-2.1 2.5-3.7 3.6-5.4q8.1-13 16.1-26 0.7-1 1.4-2.1c0.7-1 1.6-1.5 2.9-1.5 5.8 0.1 11.7 0 17.5 0.1 2 0 2.2 0.3 2.3 2.4q0 0.8 0 1.7 0 39.2 0 78.5c0 1.1 0 2.2 0 3.2-2.3 0.8-16 0.9-19 0.1 0-18.2 0-36.4 0-54.7-1.8-0.6-2.1 0.8-2.5 1.5-3.9 5.8-7.7 11.7-11.6 17.5q-4.6 6.9-9.3 13.8c-0.6 0.9-1.2 1.6-2.1 2.8-8.2-12-15.9-23.9-23.9-35.6q-0.4 0.1-0.7 0.2c-0.1 1-0.2 2.1-0.2 3.2q0 23.9 0 47.9c0 1.2-0.2 2.3-0.3 3.5z"/>
					<path id="&lt;Compound Path&gt;" fill-rule="evenodd" class="s1" d="m690.9 1333.1c8.4-0.1 15.7 1.4 22.6 4.8 12.5 6.3 19.9 16.4 22.8 29.9 2.2 10.2 1.3 20.1-3 29.7-4.1 9.2-10.9 16-20 20.3-12.6 5.9-25.7 6.6-38.8 2.2-10.6-3.4-18.6-10.1-23.8-20.1-6.5-12.7-7.1-25.9-2.2-39.2 4.8-13 14.5-21.1 27.5-25.3 5-1.7 10.3-2.4 14.9-2.3zm-1.1 72.6c9.7 0 17.2-3.7 21.9-9.7 10.9-14.1 6.4-33.6-6.8-42.1-11.2-7.2-26.4-4.5-34.4 6.2-7.1 9.7-7.6 23.7-0.8 33.5 5.3 7.8 12.6 11.9 20.1 12.1z"/>
					<path id="&lt;Compound Path&gt;" fill-rule="evenodd" class="s1" d="m608.1 1390c7.1 10.6 13.8 20.8 20.8 31.2-1.2 0.1-1.8 0.2-2.4 0.2-5.7 0-11.3 0-17 0.1-1.9 0-3.1-0.7-4.2-2.3-5.1-7.8-10.4-15.5-15.5-23.3-1.4-2.2-3.1-3-5.6-2.9-3.6 0.1-7.3 0-11.3 0-0.1 1.4-0.3 2.6-0.3 3.7-0.1 7-0.1 14-0.1 21 0 1.1-0.2 2.2-0.3 3.3-0.5 0.2-0.9 0.4-1.2 0.4-5.1 0-10.2 0.1-15.3 0-1.8 0-2.1-0.3-2.2-2.1-0.1-0.7-0.1-1.3-0.1-2q0-39.1 0-78.2c0-4.1 0.1-4.1 4.3-4.1 11.2-0.1 22.5-0.2 33.7-0.1 4 0 8.1 0.2 12.1 0.8 4.6 0.6 8.9 2.2 12.8 5 6.4 4.7 9.6 11.2 10.2 19 0.4 5.4-0.1 10.7-2.3 15.8-2.5 5.7-6.6 9.6-12 12.3-1.2 0.7-2.4 1.4-4.1 2.2zm-35.2-39.3c-0.2 1.1-0.3 1.8-0.3 2.4-0.1 6.7-0.2 13.4-0.2 20.1-0.1 2.8 0.1 2.9 3.1 3q8.9 0 17.8 0c2.6 0 5.1-0.5 7.4-1.7 4-2.2 6.7-5.3 6.9-10.2 0.2-5.2-1.9-8.9-6.3-11.4-2.8-1.7-5.8-2.1-9-2.2q-7 0-14.1 0c-1.7 0-3.4 0-5.3 0z"/>
					<path id="&lt;Compound Path&gt;" fill-rule="evenodd" class="s1" d="m533.4 1421c-1.1 0.1-1.8 0.3-2.6 0.3-4.8 0-9.6 0-14.4 0-1.9 0.1-3-0.6-3.7-2.3-1.8-4.5-3.7-8.9-5.5-13.3-1.3-3.2-1.8-3.6-5.2-3.6-9.8 0-19.7 0-29.5-0.1-2.2 0-3.4 0.6-4.3 2.7-1.8 4.7-3.8 9.2-5.8 13.8-1 2.5-1.3 2.8-3.9 2.8q-7.2 0-14.4 0c-0.8 0-1.5-0.2-2.5-0.3 0.4-1.1 0.6-2 1-2.8q9.2-21.7 18.3-43.5 7.9-18.6 15.8-37.2c0.1-0.3 0.3-0.5 0.4-0.8 0.7-2.3 2.1-3.2 4.6-3.1 4.2 0.2 8.3 0.2 12.5 0.1 1.8-0.1 2.7 0.7 3.4 2.2q5 12.2 10.2 24.3c3.8 9.1 7.7 18.2 11.6 27.3q5.2 12.4 10.4 24.7c0.8 1.9 1.7 3.8 2.5 5.7 0.4 0.9 0.7 1.9 1.1 3.1zm-58.1-36c3.3 1 20.6 0.8 23.5-0.1-0.2-0.6-0.3-1.3-0.5-1.9q-5.1-12.3-10.2-24.5c-0.1-0.5-0.7-0.7-1.3-1.4-3.9 9.5-7.6 18.6-11.5 27.9z"/>
					<path id="&lt;Path&gt;" class="s1" d="m824.7 1360.5c-1.6-1.3-3-2.5-4.5-3.7-7.1-5.3-14.8-7.8-23.6-5.8-8.2 1.9-13.7 7.1-17.3 14.4-5.2 10.6-2.9 24.2 5.2 32.6 7.1 7.2 18.1 9.5 27.5 5.8 4-1.7 7.7-3.9 10.8-7.1 0.6-0.6 1.4-1.2 2.3-1.9 0.7 0.7 1.4 1.1 1.9 1.7 3 3.3 5.8 6.5 8.7 9.7 1.8 2 1.8 2.4 0 4.2-6.7 6.4-14.7 10.1-23.8 11.5-11.1 1.7-21.9 0.6-32-4.4-7-3.5-12.7-8.6-16.5-15.5-8.8-15.8-8.9-32-0.2-47.8 4.4-8.2 11.6-14 20.3-17.3 13.1-5 26.3-5.1 39.5 0.1 4.5 1.8 8.4 4.6 12 7.9 1.5 1.4 1.6 1.9 0.4 3.3-3.4 4.1-6.9 8-10.7 12.3z"/>
				</g>
				<g id="&lt;Group&gt;">
					<path id="&lt;Path&gt;" class="s0" d="m967.8 972.5c2.1 0 3.9 0 5.6 0 2.5 0 5 0.2 7.4 0 2.4-0.2 3.8 0.7 5.2 2.6 7.6 10.2 15.3 20.3 23.1 30.4q9 11.8 18 23.6c0.5 0.7 1 1.3 2.1 1.8 0.1-1 0.1-1.9 0.1-2.9q0.1-25.8 0.1-51.5c0-1.2 0.1-2.4 0.2-4 1.6 0 3 0 4.4 0 3 0 6 0 9 0 2.4 0 2.5 0.2 2.6 2.6q0 0.7 0 1.4 0 40 0 79.9c0 1.2-0.1 2.4-0.2 3.9-3.3 0-6.4 0-9.5 0-1.1 0-2.3 0-3.4 0-1.9 0.2-3.2-0.7-4.3-2.2q-6.5-8.9-13.1-17.7-14.4-19.4-28.9-38.8c-0.3-0.4-0.7-0.8-1.1-1.3-1.1 1-0.7 2.1-0.7 3q0 17.7 0.1 35.4c0 6.1 0.1 12.1 0.1 18.2 0.1 1 0.1 2 0.1 3.2-1 0.1-1.7 0.3-2.4 0.3q-5.8 0-11.6 0c-2.7 0-2.9-0.1-2.9-2.9q0-22.3 0-44.5 0-18.6 0-37.1c0-1 0-2 0-3.4z"/>
					<path id="&lt;Compound Path&gt;" fill-rule="evenodd" class="s0" d="m423 970.7c7.9 0 15.2 1.2 22 4.6 9.6 4.8 16.4 12 20.5 22 4.7 11.5 5.1 23.2 1.1 34.8-5.3 15.3-15.8 25.1-31.6 28.6-11.8 2.7-23.5 1.8-34.5-3.7-9-4.6-15.4-11.6-19.3-20.9-5.2-12.1-5.5-24.3-1.1-36.5 5.1-14 15-23.2 29.6-27.2 4.4-1.2 9-1.7 13.3-1.7zm28.9 42.5c-0.2-6.4-3.7-14.5-11.3-20.6-13.9-11.3-34.3-7-42.6 9-5.4 10.3-5.1 20.7 0.7 30.8 6.6 11.4 19.9 16.6 31.7 13.3 12.8-3.6 21.5-15.3 21.5-32.5z"/>
					<path id="&lt;Compound Path&gt;" fill-rule="evenodd" class="s0" d="m899.7 1062.5c-7.4-0.3-14.5-1.6-21.2-4.7-9.7-4.6-16.7-11.8-20.8-21.7-5-12-5.4-24.1-1-36.3 4.4-12.1 12.5-20.9 24.6-25.7 11.2-4.3 22.5-4.5 33.9-1.2 13.6 4.1 23 13 27.8 26.5 4.6 12.8 4 25.6-1.8 38-5.9 12.4-15.7 20.3-29.2 23.4-4 0.9-8.2 1.1-12.3 1.7zm29.1-48.3c-0.1-6.8-3.5-14.7-10.4-20.9-6.1-5.4-13.4-8-21.4-6.9-12.4 1.6-20.8 8.7-24.4 20.6-4 12.9-0.8 24.3 9.6 33.2 7.3 6.2 15.8 7.9 25.2 5.5 12-3.2 21.4-15.1 21.4-31.5z"/>
					<path id="&lt;Compound Path&gt;" fill-rule="evenodd" class="s0" d="m720.4 1060.1c-0.8 0.1-1.3 0.3-1.7 0.3-4.4 0-8.9 0-13.3 0-1.4 0-2.3-0.4-2.8-1.8-2.1-5.2-4.4-10.2-6.5-15.4-1.1-2.6-1.8-3.2-4.7-3.2-10.9 0.1-21.9 0.2-32.8 0.2-2.2 0-3.5 0.9-4.3 2.9-2.1 5.3-4.4 10.4-6.5 15.7-0.4 1.1-1.1 1.7-2.2 1.7-5.1 0.1-10.2 0-15.7 0 0.3-1 0.5-1.8 0.8-2.5q11-26.2 21.9-52.5c4.3-10.2 8.7-20.5 12.8-30.8 0.8-1.7 1.8-2.5 3.6-2.4 4.1 0 8.1 0 12.2-0.1 1.6 0 2.6 0.7 3.2 2.2 1.6 3.9 3.3 7.8 5 11.7q5.1 12.1 10.2 24.2 6.1 14.4 12.2 28.9 4 9.5 8 19c0.2 0.5 0.3 1 0.6 1.9zm-59.5-35.6c9.5 0 18.2 0 27.3 0-1-4.1-2.9-7.6-4.2-11.2-1.4-3.7-3.1-7.3-4.6-11-1.4-3.5-2.7-7.2-4.5-10.6q-0.3 0-0.6 0.1c-4.4 10.7-8.8 21.5-13.4 32.7z"/>
					<path id="&lt;Compound Path&gt;" fill-rule="evenodd" class="s0" d="m107.3 1060.2c1.1-2.9 2.1-5.4 3.1-7.9q6.4-15.3 12.8-30.5 6.1-14.6 12.2-29.2c2.6-6 5.1-11.9 7.5-18 0.7-1.6 1.7-2.3 3.4-2.3q6.4 0 12.7 0c1.3 0 2.2 0.5 2.7 1.7q3.9 9.4 7.9 18.8 6 14.1 12 28.3 6.7 16 13.5 32c0.7 1.7 1.4 3.3 2.1 5 0.2 0.6 0.3 1.2 0.6 2.2-1.3 0-2.3 0-3.3 0-3.9 0-7.7 0-11.6 0.1-1.7 0-2.5-0.6-3.1-2.2-2.1-5.2-4.4-10.4-6.6-15.6-0.8-2-2.2-2.6-4.2-2.6-8.3 0-16.6 0-24.9 0-2.6 0-5.3 0.1-7.9 0.1-2.2-0.1-3.6 0.9-4.5 3.1-2 5-4.3 10-6.3 15.1-0.5 1.4-1.2 2.1-2.8 2.1-4.1 0-8.1 0.2-12.2 0.2-0.9 0-1.9-0.2-3.1-0.4zm45.4-68.3q-0.4 0-0.9 0c-2.1 5.4-4.3 10.8-6.5 16.2-2.1 5.4-4.6 10.7-6.4 16.4 3.5 0.7 24.4 0.4 27-0.4q-6.6-16.1-13.2-32.2z"/>
					<path id="&lt;Path&gt;" class="s0" d="m218.7 1035.8c1.7 1.2 3.1 2.3 4.6 3.3 5.5 3.9 11.5 6.8 18.3 7.5 4.6 0.5 9.1 0 13.2-2.2 3.9-2.2 6.1-7.1 5-10.8-0.7-2.1-2.3-3.4-4-4.5-3.4-2.3-7.4-3.4-11.3-4.5-4.7-1.3-9.4-2.5-14.1-4q-5.3-1.7-9.8-5c-5.4-3.9-8-9.3-8.5-15.8-0.4-4.2-0.2-8.3 1.2-12.3 2.3-6.8 7-11.4 13.6-13.9 13.3-5 26.2-3.1 38.7 3.1 2 1 3.8 2.2 5.6 3.4 0.9 0.6 1.7 1.5 0.9 2.6-2.4 4-4.9 8-7.5 12.2-1-0.6-1.8-0.9-2.4-1.4-5.4-4.1-11.5-6.3-18.2-7.3-4-0.5-7.9 0-11.4 2.1-5.3 3.3-5.7 10.5-0.6 14.3 2.9 2.3 6.5 3.4 10 4.4 4.3 1.2 8.6 2.2 12.8 3.5 2.9 0.9 5.7 2 8.4 3.3 10.3 4.9 14 13.2 13.3 24-0.7 10.9-7.6 19.1-18 22.1-17.6 5-33.6 1.5-47.9-9.6-1.6-1.2-1.7-1.7-0.7-3 2.8-3.7 5.7-7.4 8.8-11.5z"/>
					<path id="&lt;Path&gt;" class="s0" d="m327.6 1062c-12.8 0.1-24-4.2-34-12-1.1-0.9-1.3-1.7-0.4-2.9q4-5 7.7-10.1c1-1.2 1.8-1 2.9-0.3 2.7 2 5.4 4.1 8.4 5.7 5.5 3 11.3 4.8 17.6 4.2 2.4-0.3 4.9-0.9 7.1-1.7 3.7-1.5 5.7-4.5 6.4-8.4 0.3-2-0.2-3.6-1.4-5-1.9-2.1-4.1-3.7-6.8-4.5-4.6-1.5-9.4-2.8-14.1-4.2-5.2-1.5-10.4-3.1-15.1-6-6.3-4-9.7-9.7-10.4-17-0.4-4.2 0-8.3 1.3-12.3 2.7-8 8.7-12.7 16.5-14.9 12.3-3.5 24.1-1.6 35.4 4.1 2.1 1 4.1 2.3 6 3.7 1.5 1 1.5 1.6 0.5 3.2q-3 4.7-5.9 9.4c-1.2 2-1.5 2-3.5 0.7-3.9-2.7-8-5-12.6-6.2-4.4-1.2-8.8-2.2-13.4-0.8-1.3 0.4-2.6 1-3.8 1.7-5.6 3.6-5.4 11.4 0.3 14.8 3.1 1.9 6.5 3 10 4 5.5 1.5 11.1 3 16.5 5 5.5 1.9 10.3 5 13.6 10 6.3 10 5.4 30.5-12.8 37.1-5.2 1.8-10.5 2.7-16 2.7z"/>
					<path id="&lt;Path&gt;" class="s0" d="m558.6 1035.6c3.6 3.9 6.9 7.6 10.3 11.3-1.9 2.8-4.5 4.8-7.1 6.6-7.3 5.2-15.4 8-24.4 8.5-7.7 0.5-15.2-0.4-22.4-3.5-7-2.9-12.7-7.3-17.2-13.4-5.2-7.2-7.8-15.3-8.5-24.2-0.7-9.6 0.8-18.8 5.4-27.4 4.8-9.2 12.2-15.6 21.9-19.4 11.6-4.4 23.4-4.6 35.2-0.9 5.6 1.8 10.6 4.9 15.1 8.7 1 0.9 1.3 1.8 0.4 3-2.7 3.4-5.3 6.8-7.9 10.2-1.6 2-1.6 1.9-3.5 0.2-5.8-5.3-12.5-8.4-20.3-8.8-12.5-0.7-22.2 6.6-26.5 17.3-3.4 8.6-3.3 17.2 0.2 25.7 4.8 11.3 14.6 17.1 27 16.7 7.6-0.2 13.9-3.4 19.6-8.3 0.8-0.6 1.6-1.3 2.7-2.3z"/>
					<path id="&lt;Path&gt;" class="s0" d="m765.4 1060.2c-5.7 0-11.1 0-16.7 0-0.3-6.2-0.1-12.2-0.1-18.2-0.1-5.9 0-11.9 0-17.8q0-9.1 0-18.1c0-6 0-11.9 0-18.2-9.1-0.1-17.8 0-26.8-0.1-0.9-5.1 0-10-0.3-14.8 2.3-0.7 67-0.9 70.8-0.3 0 4.9 0 9.9 0 15.1-8.9 0-17.6 0-26.7 0-0.3 6.3-0.1 12.3-0.2 18.3 0 5.9 0 11.9 0 17.8q0 9.1 0 18.1c0 6 0 11.9 0 18.2z"/>
					<path id="&lt;Path&gt;" class="s0" d="m829.9 1060.2c-5.5 0-10.7 0-15.8 0-0.6-2.6-0.6-84.8 0-87.5 5.1 0 10.2 0 15.8 0 0 1.1 0.2 2.3 0.2 3.5q0 33.8 0 67.7 0 6.6 0 13.3c0 0.9-0.1 1.8-0.2 3z"/>
					<path id="&lt;Path&gt;" class="s0" d="m608.3 1060.2c-5.4 0-10.6 0-15.8 0-0.7-2.1-0.9-83.7-0.3-87.2 2.1-0.7 13.3-0.7 15.9-0.1 0.5 2.1 0.8 82.1 0.2 87.3z"/>
				</g>
				<g id="&lt;Group&gt;">
					<path id="&lt;Path&gt;" class="s0" d="m862.6 1135.9c0-10.5 0-21 0-31.9 2.1 0 3.9-0.1 5.6-0.1 1.8 0 3.6 0 5.1 0 0.3 0.3 0.4 0.3 0.5 0.4 0 0.1 0.1 0.2 0.1 0.2 0.1 0.7 0.2 1.3 0.2 2q0 25.3 0 50.7c0 0.3-0.2 0.5-0.4 1.2-2.9 0-5.9 0.1-8.8-0.1-0.9-0.1-1.7-1.1-2.3-1.9-3.6-4.6-7-9.4-10.5-14.1q-5.7-7.7-11.5-15.4c-0.5-0.7-1.2-1.4-2.2-2.6-0.2 1.2-0.4 1.9-0.4 2.5q0.2 14.9 0.3 29.8c0 0.4-0.1 0.9-0.1 1.7q-2.8 0.1-5.6 0.1c-1.8 0-3.6 0-5.2 0-0.2-0.2-0.3-0.3-0.4-0.4 0 0-0.1-0.1-0.1-0.2-0.1-0.5-0.2-1.1-0.2-1.7q0-25.5 0-50.9c0-0.3 0.2-0.6 0.4-1.1 3-0.3 6.1-0.4 9.1 0 1.1 0.1 2.2 1.4 2.9 2.4 4.6 5.9 9.1 11.8 13.6 17.8q3.9 5.1 7.9 10.3c0.4 0.5 0.9 1 1.3 1.5q0.3-0.1 0.7-0.2z"/>
					<path id="&lt;Path&gt;" class="s0" d="m775.7 1124.8c0 11.1 0 22.2 0 33.4-3.8 0-7.3 0-10.8 0-0.6-2.1-0.8-49.7-0.2-54.1 3.1-0.3 6.3-0.5 9.4 0.1 1.1 0.2 2.2 1.4 3 2.4 4.5 6 9 12.1 13.5 18.1q3.6 4.9 7.3 9.8c0.5 0.7 1.1 1.3 1.7 1.9q0.3-0.1 0.7-0.2c0.1-10.6 0.2-21.2 0.3-32.2 3.8-0.1 7.4-0.1 10.9 0 0.9 2.8 0.8 51.8 0 54.4-2.8 0-5.8 0.2-8.6-0.1-1-0.1-2.2-1.2-2.9-2.1-7.3-9.8-14.5-19.7-21.8-29.6-0.5-0.7-1.2-1.4-1.7-2.1q-0.4 0.2-0.8 0.3z"/>
					<path id="&lt;Compound Path&gt;" fill-rule="evenodd" class="s0" d="m105.5 1158.2c0.1-18.1-0.6-35.9-0.2-53.9 0.9-0.2 1.7-0.4 2.4-0.4 7 0 14-0.1 20.9 0.1 13.1 0.3 23.8 9.3 26.1 22.1 2.8 16.6-8.1 29.5-22.3 31.7-1.9 0.3-3.9 0.5-5.9 0.5-5.9 0.1-11.9 0.1-17.8 0.1-1 0-2-0.1-3.2-0.2zm11.6-10.8c4.5 0 8.7 0.4 12.8-0.1 4.9-0.7 8.6-3.6 10.9-8.1 2.2-4 2.3-8.3 1.4-12.6-1-5-4.1-8.4-8.5-10.5-3.2-1.6-12.1-2.1-16.6-1 0 10.7 0 21.4 0 32.3z"/>
					<path id="&lt;Compound Path&gt;" fill-rule="evenodd" class="s0" d="m724.8 1159.1c-15.9 0.3-28.8-11.9-28.9-27.8 0-15.2 11.7-28 28.3-28.3 16-0.3 28.6 11.7 29 27.2 0.5 16-12.6 28.9-28.4 28.9zm-0.2-45c-5.6-0.5-10.6 3-12.7 6.1-5.6 7.8-4.2 17.1 1.3 23 5.2 5.5 13.6 6.8 19.8 2.6 5.6-3.7 8.1-9.1 7.7-15.7-0.4-8.9-7.8-16.4-16.1-16z"/>
					<path id="&lt;Compound Path&gt;" fill-rule="evenodd" class="s0" d="m429.3 1159.1c-15.5 0.4-28.6-12-28.9-27.5-0.3-15.1 11.4-28.3 28.1-28.6 16.5-0.3 28.7 12.4 29.1 27.4 0.4 15.4-12.3 28.6-28.3 28.7zm15.7-28c-0.1-4.6-1.6-9-5.1-12.5-6.1-6-15.5-6.3-21.9-0.3-5.4 5.1-7.1 14.7-2.8 21.9 4.8 8.2 14.6 10.7 22.5 5.4 5-3.3 7.2-8.3 7.3-14.5z"/>
					<path id="&lt;Compound Path&gt;" fill-rule="evenodd" class="s0" d="m392.4 1158.4c-4.5 0-8.3 0-12.2 0-1.3 0-1.9-0.9-2.6-1.9-2.8-4.2-5.7-8.4-8.5-12.6-1.1-1.8-2.5-2.7-4.6-2.6-2.1 0.1-4.1 0-6.6 0-0.3 5.7 0 11.3-0.2 16.9-3.8 0-7.3 0-11.1 0 0-0.9-0.2-1.7-0.2-2.5q0-24.2 0-48.4c0-3.1 0.3-3.4 3.4-3.4q10.7 0 21.3 0c4 0 7.8 0.7 11.4 2.6 3.7 2 6.3 4.9 7.4 8.9 1.8 5.8 2 11.6-1.6 16.8-1.4 2-3.6 3.6-5.4 5.3-0.8 0.7-1.8 1.2-3 2.1 4.1 6.2 8.1 12.2 12.5 18.8zm-34.5-28.5c5.2 0 10.1 0.3 14.9-0.1 3.6-0.2 6.2-3.3 6.5-6.8 0.2-4.6-2.7-8-7.3-8.3-4.1-0.2-8.1-0.1-12.2-0.1-0.6 0-1.2 0.2-2.1 0.3 0 4.3 0 8.4 0 12.5 0 0.7 0.1 1.5 0.2 2.5z"/>
					<path id="&lt;Path&gt;" class="s0" d="m178 1136.3c0 3.9 0 7.4 0 11.1 1.2 0 2.2 0.1 3.2 0.1q11.7 0 23.5 0c3 0 3 0.1 3.1 3 0 2.5 0 5 0 7.7-13.9 0-27.4 0-41 0q-0.1-0.1-0.2-0.2c0-0.1-0.2-0.1-0.2-0.2 0-0.8-0.1-1.5-0.1-2.3q0-25.2 0.1-50.4c0-0.2 0.2-0.5 0.4-1 0.7 0 1.5-0.2 2.4-0.2q17.2 0 34.5 0c2.8 0 2.9 0.2 2.9 3.1 0 2.4 0 4.7 0 7.3-1.3 0.2-2.3 0.3-3.3 0.3q-11.1 0-22.1 0c-1 0-2 0-3.4 0 0 3.2 0 6 0 8.8 0.1 1.4 1.1 1.6 2.3 1.6 3.6 0 7.3 0.1 11 0.1 3.2 0 6.4 0 9.6 0 2.7 0.1 3 0.4 3 2.9q0 2.7 0 5.4c0 2.8-0.1 2.9-2.9 2.9q-9.7 0-19.5 0c-1 0-2 0-3.3 0z"/>
					<path id="&lt;Path&gt;" class="s0" d="m929 1147.4c0 3.9 0 7.2 0 10.5-2.3 0.6-37.8 0.7-40.9 0.1-0.1-0.7-0.3-1.5-0.3-2.3q0-24.4 0-48.8c0-2.9 0.1-3 3-3q17 0 34 0c0.8 0 1.7 0.1 2.9 0.2 0.4 3.4 0.2 6.7 0.1 10.3-3.3 0.4-6.4 0.2-9.5 0.2-3.1 0.1-6.2 0-9.3 0-3.1 0-6.2 0-9.7 0-0.2 3.6-0.2 6.9 0.1 10.5 8.6 0 16.8 0 25.5 0 0.2 3.8 0.2 7.3 0 11.2q-12.8 0-25.1 0c-0.8 2.4-0.9 8.2-0.1 11.1 9.6 0 19.2 0 29.3 0z"/>
					<path id="&lt;Path&gt;" class="s0" d="m531.1 1114.8c0 3.5 0 6.5 0 9.9 1.2 0.1 2.3 0.2 3.4 0.3q9.5 0.1 19 0.1c3.2 0.1 3.4 0.3 3.4 3.4q0 2 0 3.9c0 3.8-0.1 3.9-3.8 3.9q-9.3 0-18.6 0c-1 0-2.1 0-3.3 0-0.4 3.7-0.2 7.2-0.2 10.9 1.1 0.1 2.1 0.3 3.1 0.3q11.7 0 23.5 0c1 0 2 0.1 3.2 0.2 0 3.6 0 6.9 0 10.5-13.7 0-27.2 0-40.7 0-0.7-2.1-0.9-50.7-0.3-53.8 2.1-0.6 36.6-0.7 39.8-0.1 0.3 2.9 0.3 5.9 0 8.9-0.1 1.2-1.3 1.2-2.2 1.2-3.8 0.1-7.6 0.2-11.3 0.2-4 0.1-8 0-11.9 0-0.9 0-1.9 0.1-3.1 0.2z"/>
					<path id="&lt;Path&gt;" class="s0" d="m591.5 1159.3c-7.8-0.4-14.9-2.4-21.1-7.3-1.9-1.5-2-1.9-0.5-3.9 1.1-1.5 2.2-3 3.4-4.5 1.6-2.1 1.9-2.1 4-0.6 3.2 2.3 6.6 4 10.4 5 2.2 0.6 4.3 0.8 6.4 0 1.4-0.5 2.8-1.2 3.9-2.2 1.9-1.7 1.9-4-0.2-5.6-1.2-1-2.7-1.6-4.2-2.1-3.5-1.1-7.1-2-10.6-3.1-1.9-0.6-3.7-1.5-5.4-2.5-6.1-3.2-8.2-9.1-7.1-16.1 1.1-6.8 7.7-12 15-13 7.9-1.1 15.1 1 21.7 5.4 1.9 1.2 1.9 1.7 0.7 3.6-1 1.7-2.1 3.4-3.2 5-1.3 1.9-1.6 2-3.5 0.7-3.3-2-6.8-3.4-10.6-3.7-1.7-0.2-3.4 0-5 0.4-1.9 0.3-3.4 2.1-3.6 3.9-0.2 1.9 0.9 3 2.4 3.7q2.8 1.2 5.6 2.2c4 1.3 8.1 2.3 12 3.9 8.5 3.7 11.4 11.3 8 19.9-1.9 4.9-5.6 7.9-10.5 9.4-2.6 0.8-5.3 1-8 1.5z"/>
					<path id="&lt;Path&gt;" class="s0" d="m659.2 1110.4c-2 3.1-3.8 6-5.8 9.1-1.1-0.7-1.9-1.1-2.7-1.6-3.3-1.9-6.8-3.3-10.6-3.6q-3.1-0.3-5.8 1.1c-2.9 1.5-3.1 5.1-0.2 6.7 2.1 1.2 4.5 1.9 6.8 2.7 3.4 1.1 6.9 1.9 10.2 3.2 4.5 1.7 8.1 4.5 9.6 9.3 2 6.6-0.9 16.2-8.9 19.6-8.1 3.4-16 2.6-23.9-0.7-2.6-1-4.9-2.7-7.3-4.2-2-1.2-2.1-2-0.7-3.9q1.8-2.5 3.7-4.9c1.1-1.4 1.8-1.5 3.3-0.5 3.3 2.3 6.7 4.3 10.6 5.2 2.2 0.5 4.3 0.9 6.5 0.2 1.3-0.4 2.6-1.1 3.6-1.9 2.7-2.3 2.2-5.5-1-7.1-1.1-0.5-2.3-0.8-3.5-1.1-4.5-1.5-9.1-2.6-13.4-4.4-7.2-3.1-9.8-7.8-9.4-15.5 0.4-6.1 4.6-11.4 11.1-13.6 6.4-2.2 12.7-1.6 18.9 0.7 2.2 0.8 4.2 2 6.3 3.1 0.8 0.5 1.5 1.3 2.6 2.1z"/>
					<path id="&lt;Path&gt;" class="s0" d="m1050.4 1159c-7.6-0.1-14.5-2.4-20.6-6.9-1.8-1.4-2-2.1-0.6-4q1.7-2.5 3.7-4.9c1.1-1.4 1.9-1.4 3.4-0.4 3.5 2.5 7.2 4.5 11.4 5.3 3.1 0.6 6 0.5 8.7-1.5 1.4-1.1 2.4-2.4 2.1-4.3-0.4-1.8-1.6-3-3.3-3.5-1.6-0.6-3.3-1-4.9-1.4-4.2-1.3-8.6-2.2-12.6-4.3-5-2.6-8-6.3-8.3-12.1-0.3-6.3 1.9-11.3 7.3-14.7 5.4-3.4 11.3-3.8 17.4-2.7 4.3 0.8 8.4 2.4 12 4.8 1.9 1.3 2.1 1.8 1 3.7q-1.5 2.7-3.2 5.3c-1.2 1.8-1.6 1.8-3.4 0.8-2.9-1.7-5.9-3.3-9.2-3.6-2.2-0.3-4.5-0.1-6.7 0.2-1.9 0.3-3.2 1.8-3.4 3.7-0.2 1.7 0.7 3.1 2.3 3.8q2.7 1.2 5.5 2.2c4.3 1.4 8.7 2.5 12.9 4.2 5.7 2.4 8.9 6.9 8.6 13.3-0.2 6.7-3 11.9-9.4 14.8-3.5 1.6-7 2.2-10.7 2.2z"/>
					<path id="&lt;Path&gt;" class="s0" d="m250.3 1119.4c-3.9-2.3-7.4-4.2-11.3-4.9-2.3-0.4-4.5-0.4-6.7 0.4-1.9 0.6-3.1 1.9-3.3 3.9-0.1 1.9 1.1 3 2.6 3.7 1.7 0.8 3.5 1.4 5.3 2 4.4 1.5 9 2.8 13.3 4.6 3.9 1.6 6.8 4.6 7.7 8.9 1.7 8.2-2 16.9-11.3 19.8-7.5 2.2-14.8 1.4-21.8-1.6-2.7-1.1-5.1-2.9-7.5-4.4-1.5-1-1.7-1.7-0.8-3.1 1.4-2 2.9-4 4.4-5.9 0.8-1.1 1.7-0.9 2.9-0.2 2.8 1.7 5.7 3.3 8.7 4.6 2.6 1.2 5.4 1.7 8.3 0.9 1.2-0.3 2.5-0.9 3.5-1.7 3.1-2.4 2.5-6-1.2-7.5-2-0.8-4.1-1.2-6.2-1.9-3.1-0.9-6.3-1.8-9.4-3-1.9-0.8-3.8-2-5.5-3.3-7.2-5.5-6.8-19.7 3.6-25.1 3.6-1.8 7.5-2.7 11.5-2.5 6 0.3 11.7 1.9 16.8 5.4 2.2 1.5 2.2 1.6 0.9 4-1.3 2.4-2.8 4.6-4.5 6.9z"/>
					<path id="&lt;Compound Path&gt;" fill-rule="evenodd" class="s0" d="m305 1158.3c-3.9 0-7.4 0-10.8 0-0.6-2-0.8-50.4-0.2-54.2 0.9-0.1 1.8-0.2 2.7-0.2q9.4 0 18.9 0c3.3 0 6.6 0.3 9.7 1.6 6.9 2.7 11.4 9.7 11.1 17.5-0.3 6.6-2.8 12.2-8.7 15.8-2.4 1.4-5 2.4-7.7 2.5-3.8 0.3-7.5 0.4-11.3 0.5-1 0.1-2 0-3.3 0-0.6 5.6 0 10.9-0.4 16.5zm0.6-43.4c-0.2 0.3-0.4 0.4-0.4 0.6 0 4.6-0.1 9.2-0.1 13.8 0 1.6 1.2 1.8 2.4 1.8 2.9 0 5.8 0 8.8 0 0.8-0.1 1.6-0.3 2.4-0.5 4.1-1.3 6.5-4.9 6-8.8-0.6-4-3.8-6.9-8-7.1-3.3-0.1-6.6-0.1-9.8 0-0.5 0-0.9 0.1-1.3 0.2z"/>
					<path id="&lt;Path&gt;" class="s0" d="m509.9 1104.1c0 3.6 0 6.9 0 10.5-9.7 0-19.3 0-29.1 0 0 3.6 0 6.7 0 10.2 1 0.1 2 0.3 3 0.3 6.3 0 12.6 0 18.9 0 1.1 0 2.1 0.1 3.4 0.2 0.4 3.6 0.1 7.1 0.1 10.9-1.1 0-2.1 0.1-3.1 0.1q-9.6 0-19.3 0c-1 0-2 0.2-3.2 0.2 0 7.4 0 14.4 0 21.7-3.8 0-7.3 0-10.8 0-0.7-2.2-0.7-51.3-0.1-54.1 13.3 0 26.7 0 40.2 0z"/>
					<path id="&lt;Path&gt;" class="s0" d="m1024.9 1147.5c0 3.8 0 7.2 0 10.7-12.7 0-25.3 0-38.2 0-0.1-0.7-0.2-1.4-0.2-2.1q-0.1-24.7 0-49.5c0-2.5 0.1-2.6 2.5-2.7q3.4 0 6.8 0c2 0.1 2.3 0.4 2.2 2.3-0.1 4.5-0.5 9.1-0.5 13.6 0.1 8.4 0.4 16.9 0.6 25.4 0.1 1.9 0.5 2.3 2.7 2.3 6.9 0 13.8 0 20.7 0 1 0 2 0 3.4 0z"/>
					<path id="&lt;Path&gt;" class="s0" d="m978.2 1147.6c0 3.6 0 7 0 10.3-2 0.6-33.3 0.8-37.2 0.3q-0.1-0.1-0.2-0.2c0-0.1-0.1-0.2-0.1-0.3-0.1-0.4-0.2-0.9-0.2-1.4q0-25.6 0-51.2c0-0.3 0.2-0.5 0.3-1 3.6 0 7.2 0 11.1 0 0.1 1.2 0.2 2.3 0.2 3.4q0 18.1 0 36.3c0 1.1 0.1 2.2 0.2 3.6 8.7 0.2 17.2 0 25.9 0.2z"/>
					<path id="&lt;Path&gt;" class="s0" d="m683.7 1158.2c-0.9 0.1-1.5 0.2-2.1 0.2-2.9 0-5.9 0-8.7 0-0.8-2.3-0.9-51.2-0.1-54.4 3.5-0.2 7.1-0.1 10.9 0 0 18.2 0 36 0 54.2z"/>
				</g>
			</g>
		</g>
	</g>
</svg>